<svg xmlns="http://www.w3.org/2000/svg" xmlns:xlink="http://www.w3.org/1999/xlink" width="266" zoomAndPan="magnify" viewBox="0 0 199.5 58.499998" height="78" preserveAspectRatio="xMidYMid meet" version="1.0"><defs><g/><clipPath id="d5e9a91abc"><path d="M 0.597656 0 L 198.40625 0 L 198.40625 58.003906 L 0.597656 58.003906 Z M 0.597656 0 " clip-rule="nonzero"/></clipPath></defs><g clip-path="url(#d5e9a91abc)"><path fill="#ffffff" d="M 0.597656 0 L 198.40625 0 L 198.40625 58.003906 L 0.597656 58.003906 Z M 0.597656 0 " fill-opacity="1" fill-rule="nonzero"/><path fill="#ffffff" d="M 0.597656 0 L 198.40625 0 L 198.40625 58.003906 L 0.597656 58.003906 Z M 0.597656 0 " fill-opacity="1" fill-rule="nonzero"/></g><g fill="#000000" fill-opacity="1"><g transform="translate(12.108472, 40.847631)"><g><path d="M 15.429688 -27 C 12.347656 -27 9.238281 -25.257812 8.210938 -22.117188 C 8.027344 -21.496094 7.902344 -20.902344 7.902344 -20.3125 C 7.902344 -17.605469 9.765625 -15.554688 11.539062 -13.375 C 13.003906 -11.601562 14.371094 -10.140625 14.371094 -8.273438 C 14.371094 -5.753906 12.164062 -4.230469 10.140625 -4.230469 C 7.902344 -4.261719 6.128906 -5.566406 6.160156 -7.777344 C 6.191406 -7.933594 6.191406 -8.085938 6.191406 -8.210938 C 6.191406 -9.984375 5.007812 -10.792969 3.796875 -10.792969 C 2.550781 -10.792969 1.273438 -9.890625 1.273438 -8.148438 C 1.121094 -3.203125 5.476562 0 10.171875 0 C 15.148438 0 19.660156 -3.917969 19.660156 -8.710938 C 19.660156 -11.945312 17.511719 -14.433594 15.617188 -16.546875 L 15.242188 -16.953125 C 14.058594 -18.226562 13.128906 -19.628906 13.128906 -20.777344 C 13.128906 -22.148438 14.714844 -22.738281 15.429688 -22.707031 C 16.394531 -22.644531 17.078125 -21.960938 17.605469 -20.902344 C 18.011719 -19.9375 18.820312 -19.503906 19.660156 -19.503906 C 20.777344 -19.503906 21.898438 -20.34375 21.898438 -21.773438 C 21.898438 -22.085938 21.867188 -22.367188 21.773438 -22.707031 C 21.058594 -25.132812 18.601562 -27 15.429688 -27 Z M 15.429688 -27 "/></g></g></g><g fill="#000000" fill-opacity="1"><g transform="translate(33.249918, 40.847631)"><g><path d="M 15.738281 -8.773438 C 14.371094 -5.164062 11.105469 -3.703125 8.460938 -3.703125 C 6.191406 -3.703125 4.757812 -4.789062 4.757812 -6.222656 C 4.757812 -6.5 4.789062 -6.78125 4.914062 -7.09375 L 5.164062 -7.683594 C 6.066406 -7.125 7.1875 -6.75 8.429688 -6.75 C 11.261719 -6.75 13.75 -8.523438 14.589844 -11.324219 C 14.746094 -11.914062 14.835938 -12.503906 14.835938 -13.035156 C 14.835938 -15.988281 12.503906 -18.257812 8.988281 -18.257812 C 6.222656 -18.257812 3.515625 -16.640625 2.425781 -13.53125 L 0.589844 -8.210938 C 0.34375 -7.464844 0.1875 -6.71875 0.1875 -6.003906 C 0.1875 -2.300781 3.671875 0 8.210938 0 C 12.535156 0 17.449219 -2.117188 19.503906 -8.054688 C 19.597656 -8.304688 19.628906 -8.523438 19.628906 -8.710938 C 19.628906 -9.675781 18.757812 -10.203125 17.824219 -10.203125 C 16.953125 -10.203125 16.019531 -9.738281 15.738281 -8.773438 Z M 8.894531 -14.589844 C 9.765625 -14.589844 10.328125 -13.875 10.328125 -12.972656 C 10.328125 -12.722656 10.296875 -12.472656 10.203125 -12.226562 C 9.890625 -11.199219 8.957031 -10.824219 8.027344 -10.824219 C 7.433594 -10.824219 6.84375 -10.949219 6.40625 -11.199219 L 7.0625 -13.066406 C 7.402344 -14.027344 8.179688 -14.589844 8.894531 -14.589844 Z M 8.894531 -14.589844 "/></g></g></g><g fill="#000000" fill-opacity="1"><g transform="translate(47.986746, 40.847631)"><g><path d="M 13.15625 -6.5 C 13.15625 -6.46875 13.15625 -6.96875 13.035156 -7.558594 C 13.25 -7.714844 13.46875 -7.964844 13.65625 -8.242188 C 14.183594 -9.019531 15.117188 -11.726562 15.117188 -12.972656 C 15.117188 -16.144531 12.503906 -18.257812 9.144531 -18.257812 C 6.222656 -18.257812 3.453125 -16.640625 2.457031 -13.875 L 0.1875 -7.464844 C -0.09375 -6.6875 -0.21875 -5.910156 -0.21875 -5.226562 C -0.21875 -1.960938 2.582031 0 5.753906 0 C 8.179688 0 10.390625 -0.777344 11.695312 -3.015625 C 12.257812 -2.863281 12.910156 -2.769531 13.5625 -2.769531 C 17.234375 -2.769531 20.125 -5.382812 21.183594 -8.648438 C 21.277344 -8.988281 21.339844 -9.300781 21.339844 -9.582031 C 21.339844 -10.730469 20.5 -11.386719 19.597656 -11.386719 C 18.757812 -11.386719 17.886719 -10.886719 17.542969 -9.738281 C 16.859375 -7.808594 15.429688 -6.46875 13.59375 -6.46875 C 13.46875 -6.46875 13.28125 -6.46875 13.15625 -6.5 Z M 10.265625 -11.292969 C 10.171875 -11.011719 10.078125 -10.761719 10.046875 -10.515625 C 8.335938 -10.699219 6.8125 -9.300781 6.8125 -7.433594 C 6.84375 -6.375 7.371094 -5.816406 7.964844 -5.320312 C 7.558594 -4.230469 6.65625 -3.703125 5.691406 -3.703125 C 4.480469 -3.703125 4.167969 -4.449219 4.167969 -5.195312 C 4.167969 -5.785156 4.324219 -6.347656 4.449219 -6.65625 L 6.65625 -12.972656 C 7.03125 -13.996094 8.117188 -14.589844 9.082031 -14.589844 C 10.046875 -14.589844 10.667969 -13.9375 10.667969 -13.21875 C 10.667969 -12.660156 10.484375 -11.945312 10.265625 -11.292969 Z M 10.265625 -11.292969 "/></g></g></g><g fill="#000000" fill-opacity="1"><g transform="translate(64.215915, 40.847631)"><g><path d="M 17.824219 -9.019531 C 16.425781 -5.289062 14.714844 -3.703125 13.28125 -3.703125 C 12.722656 -3.703125 12.347656 -4.011719 12.347656 -4.449219 C 12.347656 -4.574219 12.378906 -4.757812 12.441406 -4.914062 L 16.144531 -15.304688 C 16.269531 -15.617188 16.300781 -15.894531 16.300781 -16.175781 C 16.300781 -17.417969 15.210938 -18.257812 14.089844 -18.257812 C 13.1875 -18.257812 12.257812 -17.730469 11.789062 -16.425781 L 8.367188 -6.875 C 7.496094 -5.164062 6.160156 -3.703125 4.914062 -3.703125 C 4.449219 -3.703125 4.199219 -4.011719 4.199219 -4.480469 C 4.199219 -4.726562 4.261719 -5.132812 4.355469 -5.445312 L 7.746094 -15.148438 C 7.871094 -15.492188 7.933594 -15.800781 7.933594 -16.113281 C 7.933594 -17.386719 6.8125 -18.257812 5.660156 -18.257812 C 4.789062 -18.257812 3.855469 -17.730469 3.421875 -16.488281 L -0.21875 -5.878906 C -0.40625 -5.320312 -0.496094 -4.757812 -0.496094 -4.230469 C -0.496094 -1.710938 1.554688 0 4.167969 0 C 6.035156 0 7.433594 -0.902344 8.585938 -2.144531 C 9.488281 -0.808594 11.167969 0 13.035156 0 C 15.988281 0 19.378906 -1.835938 21.589844 -8.304688 C 21.648438 -8.492188 21.679688 -8.679688 21.679688 -8.867188 C 21.679688 -9.859375 20.75 -10.453125 19.785156 -10.453125 C 18.976562 -10.453125 18.136719 -10.015625 17.824219 -9.019531 Z M 17.824219 -9.019531 "/></g></g></g><g fill="#000000" fill-opacity="1"><g transform="translate(80.973611, 40.847631)"><g><path d="M 4.261719 -5.070312 L 10.792969 -23.984375 C 10.917969 -24.355469 10.980469 -24.730469 10.980469 -25.039062 C 10.980469 -26.222656 9.859375 -27 8.925781 -27 C 7.746094 -27 6.96875 -26.347656 6.46875 -24.949219 L 0 -6.46875 C -0.25 -5.753906 -0.375 -5.101562 -0.375 -4.449219 C -0.375 -1.585938 1.992188 0 4.726562 0 C 7.683594 0 11.386719 -1.835938 13.5625 -8.304688 C 13.625 -8.523438 13.65625 -8.742188 13.65625 -8.925781 C 13.65625 -9.921875 12.785156 -10.636719 11.820312 -10.636719 C 11.042969 -10.636719 10.203125 -10.171875 9.765625 -9.019531 C 8.367188 -5.289062 6.5625 -3.703125 5.101562 -3.703125 C 4.480469 -3.703125 4.136719 -4.074219 4.136719 -4.542969 C 4.136719 -4.664062 4.199219 -4.882812 4.261719 -5.070312 Z M 4.261719 -5.070312 "/></g></g></g><g fill="#ab7b60" fill-opacity="1"><g transform="translate(100.898806, 41.107297)"><g><path d="M 16.675781 -9.511719 C 15.183594 -5.484375 11.824219 -3.960938 9.289062 -3.960938 C 6.785156 -3.960938 4.3125 -5.453125 4.3125 -7.546875 C 4.3125 -8.019531 4.375 -8.558594 4.566406 -9.097656 L 8.558594 -20.226562 C 9.320312 -22.320312 10.621094 -22.636719 11.382812 -22.636719 C 12.109375 -22.636719 12.617188 -22.191406 12.617188 -21.242188 C 12.617188 -20.796875 12.492188 -20.226562 12.238281 -19.59375 C 12.140625 -19.371094 12.109375 -19.148438 12.109375 -18.925781 C 12.109375 -17.816406 13.1875 -16.898438 14.425781 -16.898438 C 15.535156 -16.898438 16.769531 -17.65625 17.339844 -19.75 C 17.5625 -20.574219 17.65625 -21.335938 17.65625 -22 C 17.65625 -25.488281 14.898438 -27.519531 11.285156 -27.519531 C 8.972656 -27.519531 5.390625 -26.566406 3.710938 -21.8125 L -0.253906 -10.492188 C -0.601562 -9.511719 -0.792969 -8.433594 -0.792969 -7.480469 C -0.792969 -3.328125 3.011719 0 8.527344 0 C 12.933594 0 18.417969 -2.25 20.382812 -8.464844 C 20.449219 -8.71875 20.480469 -8.941406 20.480469 -9.128906 C 20.480469 -10.238281 19.496094 -10.875 18.515625 -10.875 C 17.691406 -10.875 16.898438 -10.460938 16.675781 -9.511719 Z M 16.675781 -9.511719 "/></g></g></g><g fill="#ab7b60" fill-opacity="1"><g transform="translate(116.393144, 41.107297)"><g><path d="M 19.878906 -10.714844 C 18.988281 -10.714844 18.007812 -10.175781 17.625 -8.972656 C 16.390625 -5.074219 14.394531 -3.773438 12.964844 -3.773438 C 12.425781 -3.773438 12.109375 -4.058594 12.109375 -4.566406 C 12.109375 -4.820312 12.171875 -5.136719 12.269531 -5.484375 L 15.820312 -15.757812 C 15.945312 -16.136719 16.007812 -16.484375 16.007812 -16.800781 C 16.007812 -18.195312 14.867188 -18.925781 13.695312 -18.925781 C 12.808594 -18.925781 11.886719 -18.515625 11.382812 -17.722656 C 10.714844 -18.132812 9.480469 -18.609375 7.863281 -18.609375 C 5.769531 -18.609375 3.488281 -17.46875 2.632812 -15.027344 L -0.347656 -6.5 C -0.539062 -5.929688 -0.664062 -5.359375 -0.664062 -4.785156 C -0.664062 -2.15625 1.457031 0 4.25 0 C 5.738281 0 7.261719 -0.664062 8.433594 -1.710938 C 9.449219 -0.253906 11.699219 0 12.648438 0 C 15.28125 0 18.800781 -1.332031 20.828125 -6.46875 C 21.273438 -7.703125 21.621094 -8.496094 21.621094 -9.066406 C 21.621094 -10.144531 20.796875 -10.714844 19.878906 -10.714844 Z M 9.414062 -11.03125 L 7.894531 -6.308594 C 7.226562 -4.25 6.023438 -3.773438 5.359375 -3.773438 C 4.660156 -3.773438 4.3125 -4.214844 4.3125 -4.945312 C 4.3125 -5.359375 4.40625 -5.738281 4.5 -6.023438 L 6.53125 -12.394531 C 7.132812 -14.328125 8.019531 -14.582031 8.527344 -14.582031 C 9.128906 -14.582031 9.796875 -13.980469 9.796875 -12.902344 C 9.796875 -12.425781 9.667969 -11.824219 9.414062 -11.03125 Z M 9.414062 -11.03125 "/></g></g></g><g fill="#ab7b60" fill-opacity="1"><g transform="translate(133.02816, 41.107297)"><g><path d="M 16.074219 -9.195312 C 14.867188 -6.085938 13.25 -3.773438 11.921875 -3.773438 C 11.476562 -3.773438 11.253906 -4.183594 11.253906 -4.628906 C 11.253906 -4.820312 11.285156 -5.074219 11.382812 -5.324219 L 13.25 -10.523438 C 13.441406 -11.160156 13.570312 -11.730469 13.570312 -12.269531 C 13.570312 -15.28125 9.765625 -16.546875 7.988281 -17.085938 C 8.085938 -17.339844 8.117188 -17.625 8.117188 -17.878906 C 8.117188 -19.339844 6.816406 -20.574219 5.390625 -20.574219 C 3.519531 -20.574219 2.410156 -18.925781 2.410156 -17.121094 C 2.410156 -16.328125 2.695312 -15.503906 3.203125 -14.867188 L 0.886719 -8.621094 C 0.824219 -8.371094 0.792969 -8.117188 0.792969 -7.925781 C 0.792969 -6.878906 1.617188 -6.339844 2.503906 -6.339844 C 3.390625 -6.339844 4.3125 -6.847656 4.691406 -7.863281 L 6.46875 -12.617188 C 7.355469 -12.332031 8.527344 -12.109375 8.527344 -11.03125 C 8.527344 -10.875 8.496094 -10.683594 8.433594 -10.460938 L 7.039062 -6.59375 C 6.785156 -5.863281 6.65625 -5.199219 6.65625 -4.566406 C 6.65625 -1.808594 8.84375 0 11.476562 0 C 14.933594 0 18.070312 -3.074219 19.941406 -8.433594 C 20.003906 -8.621094 20.035156 -8.78125 20.035156 -8.941406 C 20.035156 -9.890625 18.988281 -10.523438 17.976562 -10.523438 C 17.152344 -10.523438 16.359375 -10.144531 16.074219 -9.195312 Z M 16.074219 -9.195312 "/></g></g></g><g fill="#ab7b60" fill-opacity="1"><g transform="translate(148.015531, 41.107297)"><g><path d="M 16.042969 -8.941406 C 14.644531 -5.261719 11.316406 -3.773438 8.621094 -3.773438 C 6.308594 -3.773438 4.851562 -4.882812 4.851562 -6.339844 C 4.851562 -6.625 4.882812 -6.910156 5.007812 -7.226562 L 5.261719 -7.832031 C 6.183594 -7.261719 7.324219 -6.878906 8.589844 -6.878906 C 11.476562 -6.878906 14.011719 -8.6875 14.867188 -11.539062 C 15.027344 -12.140625 15.121094 -12.746094 15.121094 -13.285156 C 15.121094 -16.296875 12.746094 -18.609375 9.160156 -18.609375 C 6.339844 -18.609375 3.582031 -16.960938 2.472656 -13.789062 L 0.601562 -8.371094 C 0.347656 -7.609375 0.191406 -6.847656 0.191406 -6.117188 C 0.191406 -2.347656 3.742188 0 8.371094 0 C 12.777344 0 17.785156 -2.15625 19.878906 -8.210938 C 19.972656 -8.464844 20.003906 -8.6875 20.003906 -8.875 C 20.003906 -9.859375 19.117188 -10.398438 18.164062 -10.398438 C 17.277344 -10.398438 16.328125 -9.921875 16.042969 -8.941406 Z M 9.066406 -14.867188 C 9.953125 -14.867188 10.523438 -14.140625 10.523438 -13.21875 C 10.523438 -12.964844 10.492188 -12.710938 10.398438 -12.460938 C 10.082031 -11.414062 9.128906 -11.03125 8.179688 -11.03125 C 7.578125 -11.03125 6.972656 -11.160156 6.53125 -11.414062 L 7.195312 -13.316406 C 7.546875 -14.296875 8.335938 -14.867188 9.066406 -14.867188 Z M 9.066406 -14.867188 "/></g></g></g></svg>